<?xml version="1.0" encoding="UTF-8" standalone="no"?>
<!-- Created with Inkscape (http://www.inkscape.org/) -->
<svg
   xmlns:dc="http://purl.org/dc/elements/1.1/"
   xmlns:cc="http://web.resource.org/cc/"
   xmlns:rdf="http://www.w3.org/1999/02/22-rdf-syntax-ns#"
   xmlns:svg="http://www.w3.org/2000/svg"
   xmlns="http://www.w3.org/2000/svg"
   xmlns:xlink="http://www.w3.org/1999/xlink"
   xmlns:sodipodi="http://inkscape.sourceforge.net/DTD/sodipodi-0.dtd"
   xmlns:inkscape="http://www.inkscape.org/namespaces/inkscape"
   inkscape:export-ydpi="9.0000000"
   inkscape:export-xdpi="9.0000000"
   inkscape:export-filename="/home/egore/workspace/wine/desktop.png"
   sodipodi:docname="desktop.svg"
   sodipodi:docbase="/home/egore/workspace/wine"
   inkscape:version="0.41"
   sodipodi:version="0.32"
   id="svg2"
   height="128.00000pt"
   width="128.00000pt">
  <defs
     id="defs3">
    <linearGradient
       id="linearGradient9248">
      <stop
         id="stop9250"
         offset="0.0000000"
         style="stop-color:#14e72e;stop-opacity:1.0000000;" />
      <stop
         id="stop9252"
         offset="1.0000000"
         style="stop-color:#0b7918;stop-opacity:1.0000000;" />
    </linearGradient>
    <linearGradient
       id="linearGradient8474">
      <stop
         id="stop8476"
         offset="0.0000000"
         style="stop-color:#e9cc85;stop-opacity:1.0000000;" />
      <stop
         id="stop8478"
         offset="1.0000000"
         style="stop-color:#8e6c21;stop-opacity:1.0000000;" />
    </linearGradient>
    <linearGradient
       id="linearGradient6188">
      <stop
         id="stop6190"
         offset="0"
         style="stop-color:#000000;stop-opacity:1;" />
      <stop
         id="stop6196"
         offset="0.50000000"
         style="stop-color:#444444;stop-opacity:1.0000000;" />
      <stop
         id="stop6192"
         offset="1.0000000"
         style="stop-color:#000000;stop-opacity:1.0000000;" />
    </linearGradient>
    <linearGradient
       id="linearGradient4642">
      <stop
         id="stop4644"
         offset="0.0000000"
         style="stop-color:#3095d5;stop-opacity:1.0000000;" />
      <stop
         id="stop4646"
         offset="1.0000000"
         style="stop-color:#000983;stop-opacity:1.0000000;" />
    </linearGradient>
    <linearGradient
       id="linearGradient3852">
      <stop
         id="stop3854"
         offset="0.0000000"
         style="stop-color:#ffffff;stop-opacity:1.0000000;" />
      <stop
         id="stop3856"
         offset="1.0000000"
         style="stop-color:#b5b5b5;stop-opacity:1.0000000;" />
    </linearGradient>
    <linearGradient
       gradientUnits="userSpaceOnUse"
       y2="50.287312"
       x2="19.638834"
       y1="44.067619"
       x1="3.7583466"
       gradientTransform="matrix(1.749990,0.000000,0.000000,2.375727,-6.094145,-56.99481)"
       id="linearGradient3858"
       xlink:href="#linearGradient3852"
       inkscape:collect="always" />
    <linearGradient
       gradientUnits="userSpaceOnUse"
       y2="93.033798"
       x2="162.31038"
       y1="88.700706"
       x1="150.64301"
       gradientTransform="matrix(1.696161,0.000000,0.000000,1.892189,-121.5127,-80.85448)"
       id="linearGradient3866"
       xlink:href="#linearGradient3852"
       inkscape:collect="always" />
    <linearGradient
       gradientUnits="userSpaceOnUse"
       y2="148.74564"
       x2="37.101078"
       y1="145.39417"
       x1="26.083685"
       gradientTransform="matrix(2.169486,0.000000,0.000000,1.903721,-36.01102,-152.9947)"
       id="linearGradient3874"
       xlink:href="#linearGradient3852"
       inkscape:collect="always" />
    <linearGradient
       gradientUnits="userSpaceOnUse"
       y2="23.119118"
       x2="116.99958"
       y1="17.658207"
       x1="100.34067"
       gradientTransform="matrix(1.956436,0.000000,0.000000,1.619155,-93.94675,-11.10166)"
       id="linearGradient3882"
       xlink:href="#linearGradient3852"
       inkscape:collect="always" />
    <radialGradient
       gradientUnits="userSpaceOnUse"
       r="98.718285"
       fy="62.396198"
       fx="46.676632"
       cy="62.396198"
       cx="46.676632"
       gradientTransform="matrix(1.072702,0.000000,0.000000,0.980913,-2.160552,-2.818716)"
       id="radialGradient4650"
       xlink:href="#linearGradient4642"
       inkscape:collect="always" />
    <linearGradient
       gradientUnits="userSpaceOnUse"
       y2="97.682426"
       x2="75.866646"
       y1="92.296959"
       x1="66.778664"
       gradientTransform="matrix(1.204509,0.290402,-0.394131,1.634758,-11.93288,-51.77541)"
       id="linearGradient6194"
       xlink:href="#linearGradient6188"
       inkscape:collect="always" />
    <linearGradient
       gradientUnits="userSpaceOnUse"
       y2="95.473145"
       x2="78.814468"
       y1="85.863045"
       x1="60.313721"
       gradientTransform="matrix(1.213310,0.292522,-0.391273,1.622899,-11.93288,-51.77541)"
       id="linearGradient8480"
       xlink:href="#linearGradient8474"
       inkscape:collect="always" />
    <linearGradient
       gradientUnits="userSpaceOnUse"
       y2="57.363434"
       x2="110.49654"
       y1="44.137405"
       x1="97.105186"
       gradientTransform="matrix(1.198382,0.288923,-0.396147,1.643116,-11.93288,-51.77541)"
       id="linearGradient9246"
       xlink:href="#linearGradient9248"
       inkscape:collect="always" />
  </defs>
  <sodipodi:namedview
     inkscape:guide-bbox="true"
     showguides="true"
     inkscape:window-y="5"
     inkscape:window-x="0"
     inkscape:window-height="997"
     inkscape:window-width="1274"
     inkscape:current-layer="layer1"
     inkscape:document-units="px"
     inkscape:cy="37.753164"
     inkscape:cx="132.18005"
     inkscape:zoom="2.6312500"
     inkscape:pageshadow="2"
     inkscape:pageopacity="0.0"
     borderopacity="1.0"
     bordercolor="#666666"
     pagecolor="#ffffff"
     id="base" />
  <metadata
     id="metadata4">
    <rdf:RDF
       id="RDF5">
      <cc:Work
         id="Work6"
         rdf:about="">
        <dc:format
           id="format7">image/svg+xml</dc:format>
        <dc:type
           rdf:resource="http://purl.org/dc/dcmitype/StillImage"
           id="type9" />
        <dc:date
           id="date1418">2005-03-12</dc:date>
        <dc:creator
           id="creator1420">
          <cc:Agent
             id="Agent1422">
            <dc:title
               id="title1424">Christoph Brill</dc:title>
          </cc:Agent>
        </dc:creator>
        <dc:title
           id="title1426">Desktop</dc:title>
        <dc:subject
           id="subject1428">
          <rdf:Bag
             id="Bag1430">
            <rdf:li
               id="li1480">Desktop</rdf:li>
            <rdf:li
               id="li1482">Wine</rdf:li>
          </rdf:Bag>
        </dc:subject>
        <dc:description
           id="description1510">This is a prototype for the &quot;Desktop&quot; icon for wine</dc:description>
        <cc:license
           rdf:resource="http://web.resource.org/cc/PublicDomain"
           id="license1512" />
      </cc:Work>
      <cc:License
         id="License1514"
         rdf:about="http://web.resource.org/cc/PublicDomain">
        <cc:permits
           id="permits1516"
           rdf:resource="http://web.resource.org/cc/Reproduction" />
        <cc:permits
           id="permits1518"
           rdf:resource="http://web.resource.org/cc/Distribution" />
        <cc:permits
           id="permits1520"
           rdf:resource="http://web.resource.org/cc/DerivativeWorks" />
      </cc:License>
    </rdf:RDF>
  </metadata>
  <g
     id="layer1"
     inkscape:groupmode="layer"
     inkscape:label="Layer 1">
    <path
       sodipodi:nodetypes="ccccc"
       id="path5426"
       d="M 2.9323628,51.572020 C 43.207594,34.481452 83.870826,20.882901 124.92207,8.4483587 C 135.09327,40.319958 146.04047,70.833550 158.34567,102.31714 C 116.77711,114.48994 73.850520,132.09476 34.221957,150.47559 C 20.494074,117.89573 10.646212,83.763878 2.9323628,51.572020 z "
       style="fill:none;fill-opacity:1.0000000;fill-rule:evenodd;stroke:#000000;stroke-width:1.2822257;stroke-linecap:butt;stroke-linejoin:miter;stroke-miterlimit:4.0000000;stroke-opacity:0.51372552" />
    <path
       sodipodi:nodetypes="ccccc"
       id="path1522"
       d="M 1.9134696,51.159765 C 42.188702,34.069197 82.851935,20.470647 123.90318,8.0361038 C 134.07437,39.907703 145.02158,70.421295 157.32677,101.90489 C 115.75821,114.07768 72.831629,131.68252 33.203067,150.06335 C 19.475183,117.48348 9.6273206,83.351623 1.9134696,51.159765 z "
       style="fill:url(#radialGradient4650);fill-opacity:1.0000000;fill-rule:evenodd;stroke:#000000;stroke-width:1.2822257;stroke-linecap:butt;stroke-linejoin:miter;stroke-miterlimit:4.0000000;stroke-opacity:1.0000000" />
    <path
       sodipodi:nodetypes="ccccccc"
       id="path5422"
       d="M 94.761222,16.603200 C 95.844517,21.377177 97.769339,25.225481 100.28324,29.410396 C 105.25356,26.672103 110.56050,24.691182 115.95162,23.215177 C 117.25662,29.031043 118.81412,34.257842 121.12898,39.652946 C 125.80278,37.678703 130.56074,36.377682 135.40283,35.497422 C 131.86711,25.857294 128.75214,16.048863 126.05795,6.3245823 C 115.45738,9.4141788 104.94099,12.672079 94.761222,16.603200 z "
       style="stroke-dasharray:none;stroke-opacity:0.51372552;stroke-miterlimit:4.0000000;stroke-linejoin:miter;stroke-linecap:butt;stroke-width:1.0000000;stroke:#000000;fill-rule:evenodd;fill-opacity:1.0000000;fill:none" />
    <path
       sodipodi:nodetypes="ccccccc"
       id="path1524"
       d="M 94.458436,15.915263 C 95.541731,20.689245 97.466551,24.537546 99.980454,28.722461 C 104.95079,25.984167 110.25772,24.003245 115.64882,22.527241 C 116.95384,28.343109 118.51134,33.569908 120.82618,38.965013 C 125.49998,36.990771 130.25796,35.689747 135.10006,34.809485 C 131.56431,25.169357 128.44934,15.360927 125.75515,5.6366478 C 115.15459,8.7262438 104.63822,11.984144 94.458436,15.915263 z "
       style="stroke-dasharray:none;stroke-opacity:1.0000000;stroke-miterlimit:4.0000000;stroke-linejoin:miter;stroke-linecap:butt;stroke-width:1.0000000;stroke:#000000;fill-rule:evenodd;fill-opacity:1.0000000;fill:url(#linearGradient3882)" />
    <path
       sodipodi:nodetypes="ccccccc"
       id="path4652"
       d="M 1.5193795,49.945228 C 3.2699968,60.482598 5.0206141,69.477467 8.3137341,80.014835 C 12.378103,76.614597 16.056849,75.142486 20.699658,73.863190 C 19.129612,68.663368 18.330818,65.391672 17.146395,59.034973 C 22.612484,55.800005 26.343256,54.493160 31.423721,53.186319 C 29.666980,48.225218 28.681494,44.228177 28.467255,38.688636 C 18.584838,42.055209 10.823359,45.807405 1.5193795,49.945228 z "
       style="fill:none;fill-opacity:1.0000000;fill-rule:evenodd;stroke:#000000;stroke-width:1.0012079;stroke-linecap:butt;stroke-linejoin:miter;stroke-miterlimit:4.0000000;stroke-opacity:0.51515150" />
    <path
       sodipodi:nodetypes="ccccccc"
       id="path1526"
       d="M 0.54412438,49.373576 C 2.2947418,59.910946 4.0453591,68.905814 7.3384781,79.443183 C 11.402847,76.042945 15.081592,74.570834 19.724401,73.291538 C 18.154353,68.091715 17.355559,64.820019 16.171138,58.463321 C 21.637226,55.228352 25.367999,53.921511 30.448464,52.614667 C 28.691724,47.653566 27.706237,43.656525 27.491999,38.116984 C 17.609581,41.483558 9.8481041,45.235754 0.54412438,49.373576 z "
       style="fill:url(#linearGradient3858);fill-opacity:1.0000000;fill-rule:evenodd;stroke:#000000;stroke-width:1.0012079;stroke-linecap:butt;stroke-linejoin:miter;stroke-miterlimit:4.0000000;stroke-opacity:1.0000000" />
    <path
       sodipodi:nodetypes="ccccccc"
       id="path4656"
       d="M 21.944377,124.10518 C 25.820768,121.75268 31.433569,119.81465 35.445848,118.82105 C 36.955592,124.08789 39.008890,128.40353 41.198075,132.99093 C 45.482962,130.41070 50.311403,128.50991 55.275732,127.28856 C 56.513282,131.61709 58.350673,136.49881 60.811224,140.41968 C 52.164996,143.76995 42.518085,148.10441 34.007747,152.67769 C 29.571183,143.84947 25.157939,133.34109 21.944377,124.10518 z "
       style="fill:none;fill-opacity:1.0000000;fill-rule:evenodd;stroke:#000000;stroke-width:1.2515100;stroke-linecap:butt;stroke-linejoin:miter;stroke-miterlimit:4.0000000;stroke-opacity:0.51372552" />
    <path
       sodipodi:nodetypes="ccccccc"
       id="path1528"
       d="M 21.062136,123.71537 C 24.938527,121.36287 30.551330,119.42485 34.563610,118.43124 C 36.073351,123.69809 38.126648,128.01371 40.315835,132.60113 C 44.600720,130.02088 49.429161,128.12008 54.393492,126.89874 C 55.631041,131.22727 57.468433,136.10901 59.928984,140.02987 C 51.282756,143.38014 41.635844,147.71460 33.125506,152.28787 C 28.688942,143.45966 24.275697,132.95127 21.062136,123.71537 z "
       style="fill:url(#linearGradient3874);fill-opacity:1.0000000;fill-rule:evenodd;stroke:#000000;stroke-width:1.2515100;stroke-linecap:butt;stroke-linejoin:miter;stroke-miterlimit:4.0000000;stroke-opacity:1.0000000" />
    <path
       sodipodi:nodetypes="ccccccc"
       id="path5418"
       d="M 128.27934,100.39384 C 129.27575,104.44913 130.51179,107.90546 132.82589,111.60140 C 141.33834,108.25093 150.68931,105.85878 159.56111,103.58642 C 155.97072,94.317114 152.73965,85.646781 149.62841,76.497285 C 145.22585,77.931483 140.94305,79.605263 136.89985,81.997778 C 138.13658,86.148672 140.21187,91.138098 142.28712,95.408779 C 137.25851,96.591311 132.94861,98.013416 128.27934,100.39384 z "
       style="fill:none;fill-opacity:1.0000000;fill-rule:evenodd;stroke:#000000;stroke-width:1.0012079;stroke-linecap:butt;stroke-linejoin:miter;stroke-miterlimit:4.0000000;stroke-opacity:0.51372552" />
    <path
       sodipodi:nodetypes="ccccccc"
       id="path1530"
       d="M 127.57826,100.02435 C 128.57466,104.07964 129.81070,107.53599 132.12480,111.23192 C 140.63725,107.88143 149.98822,105.48930 158.86004,103.21692 C 155.26961,93.947641 152.03857,85.277301 148.92732,76.127806 C 144.52474,77.562003 140.24197,79.235782 136.19877,81.628299 C 137.43549,85.779193 139.51076,90.768617 141.58603,95.039303 C 136.55741,96.221827 132.24753,97.643938 127.57826,100.02435 z "
       style="fill:url(#linearGradient3866);fill-opacity:1.0000000;fill-rule:evenodd;stroke:#000000;stroke-width:1.0012079;stroke-linecap:butt;stroke-linejoin:miter;stroke-miterlimit:4.0000000;stroke-opacity:1.0000000" />
    <path
       sodipodi:nodetypes="cccccc"
       id="path9254"
       d="M 39.894572,103.23886 L 117.73060,25.750070 C 124.31165,19.592668 135.64070,32.450885 134.95965,42.413529 L 58.199321,119.06952 L 30.124458,132.56737 L 39.894572,103.23886 z "
       style="fill:#000000;fill-opacity:0.51372552;fill-rule:evenodd;stroke:none;stroke-width:1.2500000;stroke-linecap:butt;stroke-linejoin:round;stroke-miterlimit:4.0000000;stroke-opacity:1.0000000" />
    <path
       sodipodi:nodetypes="ccccc"
       id="path7714"
       d="M 39.170240,100.37009 L 117.00628,22.881317 C 123.58730,16.723912 134.91636,29.582128 134.23532,39.544775 L 57.474984,116.20079 L 39.170240,100.37009 z "
       style="fill:url(#linearGradient9246);fill-opacity:1.0000000;fill-rule:evenodd;stroke:#000000;stroke-width:1.4652239;stroke-linecap:butt;stroke-linejoin:round;stroke-miterlimit:4.0000000;stroke-opacity:1.0000000" />
    <path
       sodipodi:nodetypes="cccc"
       id="path1538"
       d="M 39.162723,100.32845 L 29.294911,130.13529 L 57.420277,116.24343 C 55.280368,106.92566 46.333638,98.250282 39.162723,100.32845 z "
       style="fill:url(#linearGradient8480);fill-opacity:1.0000000;fill-rule:evenodd;stroke:#000000;stroke-width:1.4652239;stroke-linecap:butt;stroke-linejoin:round;stroke-miterlimit:4.0000000;stroke-opacity:1.0000000" />
    <path
       sodipodi:nodetypes="cccc"
       id="path1540"
       d="M 34.293086,115.03332 L 29.294706,130.13615 L 43.821294,122.98690 C 41.165521,118.17765 38.529803,115.75600 34.293086,115.03332 z "
       style="fill:url(#linearGradient6194);fill-opacity:1.0000000;fill-rule:evenodd;stroke:#000000;stroke-width:1.4652239;stroke-linecap:butt;stroke-linejoin:miter;stroke-miterlimit:4.0000000;stroke-opacity:1.0000000" />
  </g>
</svg>
