<?xml version="1.0" encoding="UTF-8" standalone="no"?>
<!-- Created with Inkscape (http://www.inkscape.org/) -->

<svg
   xmlns:dc="http://purl.org/dc/elements/1.1/"
   xmlns:cc="http://creativecommons.org/ns#"
   xmlns:rdf="http://www.w3.org/1999/02/22-rdf-syntax-ns#"
   xmlns:svg="http://www.w3.org/2000/svg"
   xmlns="http://www.w3.org/2000/svg"
   xmlns:sodipodi="http://sodipodi.sourceforge.net/DTD/sodipodi-0.dtd"
   xmlns:inkscape="http://www.inkscape.org/namespaces/inkscape"
   width="483.30145"
   height="849.75897"
   id="svg3647"
   version="1.1"
   inkscape:version="0.47 r22583"
   sodipodi:docname="welcome.svg">
  <defs
     id="defs3649">
    <inkscape:perspective
       sodipodi:type="inkscape:persp3d"
       inkscape:vp_x="0 : 526.18109 : 1"
       inkscape:vp_y="0 : 1000 : 0"
       inkscape:vp_z="744.09448 : 526.18109 : 1"
       inkscape:persp3d-origin="372.04724 : 350.78739 : 1"
       id="perspective3655" />
  </defs>
  <sodipodi:namedview
     id="base"
     pagecolor="#ffffff"
     bordercolor="#666666"
     borderopacity="1.0"
     inkscape:pageopacity="0.0"
     inkscape:pageshadow="2"
     inkscape:zoom="0.49497475"
     inkscape:cx="197.25623"
     inkscape:cy="381.35521"
     inkscape:document-units="px"
     inkscape:current-layer="text4203"
     showgrid="false"
     inkscape:window-width="830"
     inkscape:window-height="843"
     inkscape:window-x="2"
     inkscape:window-y="2"
     inkscape:window-maximized="0" />
  <metadata
     id="metadata3652">
    <rdf:RDF>
      <cc:Work
         rdf:about="">
        <dc:format>image/svg+xml</dc:format>
        <dc:type
           rdf:resource="http://purl.org/dc/dcmitype/StillImage" />
        <dc:title></dc:title>
      </cc:Work>
    </rdf:RDF>
  </metadata>
  <g
     inkscape:label="Layer 1"
     inkscape:groupmode="layer"
     id="layer1"
     transform="translate(-114.08952,-76.398915)">
    <g
       id="g4231"
       transform="translate(28.284271,2.0203051)">
      <g
         id="text4203"
         style="font-size:134.10939026px;font-style:normal;font-variant:normal;font-weight:normal;font-stretch:normal;text-align:start;line-height:125%;writing-mode:lr-tb;text-anchor:start;fill:#ffffff;fill-opacity:1;stroke:none;font-family:Action Jackson;-inkscape-font-specification:Action Jackson"
         transform="matrix(0.62305124,0.07524403,-0.07524403,0.62305124,143.17328,19.974435)">
        <g
           id="g4253"
           inkscape:export-filename="E:\george supreeth\projects\clipart\welcome.png"
           inkscape:export-xdpi="72"
           inkscape:export-ydpi="72">
          <g
             transform="matrix(1.2579304,-0.15191648,0.15191648,1.2579304,-154.36097,269.7444)"
             id="g4192">
            <path
               id="path4190"
               d="m 177.9917,401.82394 c 0,0 14.14215,-53.53808 6.06093,-49.49747 -8.08123,4.04061 -7.07108,22.22335 -7.07108,22.22335 0,0 -34.34519,-43.43656 -35.35534,-31.31473 -1.01015,12.12183 25.25382,31.31473 25.25382,31.31473 0,0 -52.52794,-28.28427 -47.47717,-16.16244 5.05076,12.12183 35.35534,18.18275 35.35534,18.18275 0,0 -50.50763,-7.07107 -43.43656,0 7.07106,7.07107 39.39595,9.09137 39.39595,9.09137 0,0 -1.01016,9.09137 5.05076,14.14214 6.06091,5.05076 20.20305,12.12183 20.20305,12.12183 l 2.0203,-10.10153 z"
               style="fill:#ffaaaa;fill-opacity:1;stroke:none" />
            <path
               style="fill:#ffaaaa;fill-opacity:1;stroke:none"
               d="m 581.84787,412.93562 c 0,0 -14.14214,-53.53808 -6.06092,-49.49747 8.08122,4.04061 7.07107,22.22335 7.07107,22.22335 0,0 34.34519,-43.43656 35.35534,-31.31473 1.01015,12.12183 -25.25382,31.31473 -25.25382,31.31473 0,0 52.52794,-28.28427 47.47717,-16.16244 -5.05076,12.12183 -35.35534,18.18275 -35.35534,18.18275 0,0 50.50763,-7.07107 43.43656,0 -7.07106,7.07107 -39.39595,9.09137 -39.39595,9.09137 0,0 1.01016,9.09137 -5.05076,14.14214 -6.06091,5.05076 -20.20305,12.12183 -20.20305,12.12183 l -2.0203,-10.10153 z"
               id="path4188" />
            <path
               id="path4186"
               d="m 430.17303,903.88776 4.04581,24.27484 c 0,0 38.43515,-29.3321 72.82449,-13.14888 34.38934,16.18322 41.4695,25.28629 41.4695,25.28629 l -132.50011,-2.02291 4.0458,-34.38934 10.11451,0 z"
               style="fill:#1c2224;stroke:none" />
            <path
               style="fill:#1c2224;stroke:none"
               d="m 367.7995,903.76438 -4.05952,24.35709 c 0,0 -38.56538,-29.43148 -73.07125,-13.19343 -34.50586,16.23805 -41.61001,25.37197 -41.61001,25.37197 l 132.94907,-2.02976 -4.05951,-34.50587 -10.14878,0 z"
               id="path4184" />
            <path
               style="fill:#216778;stroke:none"
               d="m 327.28942,611.93567 c 0,0 36.3655,234.35539 14.14214,268.70058 -22.22336,34.34519 -46.46702,30.30458 -46.46702,30.30458 l 86.87312,24.24366 c 0,0 -24.24366,-242.43661 -14.14213,-256.57875 10.10152,-14.14213 38.38579,-20.20305 42.4264,-6.06091 4.04061,14.14213 6.06092,262.63966 6.06092,262.63966 l 70.71068,-26.26397 c 0,0 -40.40611,-4.04061 -46.46702,-62.62946 -6.06092,-58.58884 -6.06092,-236.37569 -6.06092,-236.37569 l -107.07617,2.0203 z"
               id="path4182" />
            <path
               style="fill:#ffaaaa;stroke:none"
               d="m 392.50151,131.78072 c -12.85477,-1.11312 -27.31845,0.52191 -43.25714,5.14893 0,0 -87.15361,30.49518 -94.18039,49.87621 -7.02678,19.38103 22.3917,19.55832 22.3917,19.55832 0,0 -28.24262,78.92385 13.32095,128.45245 41.56356,49.5286 77.8945,66.22154 77.8945,66.22154 l 19.25317,1.26446 c 0,0 60.58549,-51.20261 71.68588,-144.84351 8.84563,-74.62009 -16.67846,-121.31152 -67.10867,-125.6784 z m 48.95918,127.41811 c 0,0 -75.40696,153.06746 -158.17746,8.80804 l 62.24779,-3.47173 1.37068,16.85476 19.29466,-0.0507 1.23259,-18.03123 74.03174,-4.10912 z"
               id="path3657" />
            <path
               style="fill:none;stroke:#501616;stroke-width:4.07289362;stroke-miterlimit:4;stroke-dasharray:none"
               d="m 319.64436,172.75253 c 2.27624,-5.91662 9.56338,-8.95397 16.27628,-6.78411 4.47085,1.44514 7.74853,4.9369 8.53411,9.09147"
               id="path3661"
               sodipodi:nodetypes="csc" />
            <path
               sodipodi:nodetypes="csc"
               id="path4174"
               d="m 358.32975,176.74507 c 2.27624,-5.91662 9.56338,-8.95397 16.27628,-6.78411 4.47085,1.44514 7.74853,4.9369 8.53411,9.09146"
               style="fill:none;stroke:#501616;stroke-width:4.07289362;stroke-miterlimit:4;stroke-dasharray:none" />
            <path
               style="fill:#ff6600;stroke:none"
               d="m 354.68696,392.88765 43.62187,0.43993 -1.41255,33.36631 c 0,0 82.53785,26.79767 118.99011,37.66836 30.14896,8.99093 62.4918,-54.4816 62.4918,-54.4816 l 15.14372,10.70257 c 0,0 -38.64805,79.2838 -71.00954,77.97496 -32.3615,-1.30884 -60.91822,-29.64399 -86.69303,-16.0558 -25.7748,13.58819 39.11987,124.05247 -10.73866,153.25045 -16.19968,9.48681 -89.96815,5.78613 -100.68895,-8.36059 -32.66267,-43.10036 8.94352,-126.01674 -3.77577,-140.53117 -12.71928,-14.51443 -42.61705,-0.33624 -77.9215,7.19086 -68.93489,-3.78466 -67.76305,-40.94394 -85.71671,-91.9006 l 24.63408,-2.53522 c 0,0 -3.33634,59.35294 55.04666,64.36286 58.383,5.0099 116.51222,-36.7202 116.51222,-36.7202 l 1.51625,-34.37112 z"
               id="path4180"
               sodipodi:nodetypes="cccsccssssscccscc" />
          </g>
          <path
             style="fill:#87cdde;stroke:none"
             d="m 250.51783,82.615739 c 0,0 -108.08632,22.223361 -146.47212,92.934031 -38.385795,70.71068 -14.142133,131.31983 53.53809,123.23861 67.68022,-8.08122 104.04571,-68.69037 137.38074,-81.82235 33.33504,-13.13199 35.35534,45.45686 35.35534,45.45686 0,0 -5.05076,-62.62946 40.4061,-44.44671 45.45687,18.18275 76.7716,93.94419 151.52289,67.68022 74.75128,-26.26397 50.50762,-113.13708 -6.06092,-161.62441 C 459.61941,75.544671 321.22851,64.432993 250.51783,82.615739 z"
             id="path4227"
             transform="matrix(1.5819325,-0.19104524,0.19104524,1.5819325,-230.30648,-4.2456335)" />
          <path
             d="m 69.578043,278.35477 c 3.220264,1.74863 7.835548,5.42509 13.845863,11.02937 4.382138,4.10882 8.803835,8.23901 13.265102,12.39058 0.03616,0.1222 4.127222,3.36033 12.273222,9.71442 5.96057,4.76405 9.53135,8.0255 10.71237,9.78436 0.95147,1.43262 -1.21832,7.02121 -6.50938,16.7658 -1.83446,3.37857 -3.95994,5.32611 -6.37645,5.84261 -0.12211,0.0362 -3.26263,0.0107 -9.421554,-0.0767 1.046588,2.1952 2.114016,4.35199 3.202284,6.47035 1.3484,2.76579 1.60663,4.91476 0.77471,6.44691 -0.83196,1.53224 -2.051642,3.87147 -3.659067,7.01769 -1.607442,3.14631 -2.837544,5.50472 -3.69031,7.07524 -1.109258,2.04296 -3.863615,3.65059 -8.263077,4.82288 -3.95885,1.10423 -7.290749,1.43114 -9.995709,0.98075 -3.539874,-0.59943 -8.611956,-2.03082 -15.21626,-4.29419 -7.911554,-2.66887 -13.01705,-4.32176 -15.316501,-4.95869 -8.601827,-2.32958 -21.544745,-5.84735 -38.828793,-10.55332 -0.079013,-1.1637 0.6055775,-4.25142 2.0537726,-9.26316 1.4483568,-5.01163 2.5350854,-8.18526 3.2601884,-9.5209 0.127668,-0.23492 1.038735,-1.72415 2.733205,-4.4677 l 0.503415,-0.6441 c 0.831348,-0.97053 2.499921,-2.12375 5.005725,-3.45965 2.505943,-1.33575 4.440165,-2.04046 5.802673,-2.11414 1.848602,-0.21947 6.860289,1.22881 15.035075,4.34484 9.326333,3.43712 14.902346,5.34704 16.728053,5.72978 -1.036096,-1.27661 -2.033312,-2.5306 -2.991649,-3.76199 -0.450834,-0.85637 -0.164606,-2.22692 0.858685,-4.11167 1.62095,-2.98518 4.055976,-5.78299 7.305086,-8.39343 0.820302,-0.57287 2.096413,-1.05046 3.828336,-1.43275 2.211137,-0.32687 3.581057,-0.59983 4.109764,-0.8189 -4.552668,-3.79451 -10.656814,-9.04314 -18.312455,-15.7459 -9.404752,-8.15838 -14.758685,-13.09901 -16.061818,-14.82191 l 0.255832,-0.47116 c 0.470053,-0.86549 3.259398,-3.19227 8.368042,-6.98033 5.108733,-3.78782 7.984537,-5.71061 8.627422,-5.76837 1.161388,-0.0803 3.878724,0.30154 8.152016,1.14541 4.273347,0.84414 6.920739,1.54345 7.942182,2.09795 z m -16.546161,1.24283 c -2.7859,1.9461 -6.904958,4.84632 -12.357185,8.70067 6.806046,5.83164 13.610194,11.6637 20.412464,17.49622 9.835521,8.4918 15.762415,14.2527 17.780699,17.28274 1.143533,1.63933 1.608535,2.65558 1.395008,3.04874 -0.511654,0.94241 -3.413634,0.99359 -8.705949,0.15352 -5.29228,-0.8399 -8.123116,-1.10559 -8.492517,-0.79705 -2.024598,1.85335 -3.612367,3.83981 -4.763314,5.95939 -0.128861,0.23746 1.679508,2.94946 5.425111,8.13601 3.745655,5.18668 5.191433,8.56647 4.337339,10.13937 -0.72516,1.33563 -5.421448,0.6159 -14.088881,-2.15918 -5.339896,-1.77858 -10.658894,-3.59863 -15.957009,-5.46016 -10.23004,-2.70446 -17.689571,-3.95588 -22.378617,-3.75426 l -0.886186,1.34906 c -1.015354,1.68721 -1.814345,4.05073 -2.396977,7.09057 -0.582478,3.03994 -1.382668,5.40281 -2.400574,7.08861 l 0.823645,0.44722 c 7.609849,2.09836 19.307053,5.19433 35.091647,9.28791 6.884665,2.31314 17.344139,5.34713 31.378452,9.10199 2.818475,-4.06432 6.923531,-10.12654 12.315179,-18.18667 -1.988932,-2.70676 -3.93765,-5.39328 -5.846158,-8.05958 -3.098683,-4.22521 -4.435161,-6.72989 -4.009436,-7.51404 0.47001,-0.86554 3.513316,-0.94398 9.129925,-0.23534 3.341067,0.59402 6.703616,1.14841 10.087656,1.66317 0.432525,-0.98523 1.187626,-2.33017 2.265316,-4.03482 1.07766,-1.70452 1.80788,-2.90928 2.19067,-3.61431 2.68849,-4.95138 3.26371,-8.3523 1.72566,-10.20275 -3.23179,-3.79138 -9.464161,-9.36421 -18.697127,-16.71852 -6.937988,-5.39392 -13.877178,-10.78858 -20.817591,-16.18401 -2.680292,-2.37112 -6.867371,-5.71261 -12.56125,-10.0245 z m 62.143538,45.18472 c -1.16508,0.0816 -2.90281,0.003 -5.21319,-0.23663 -1.02652,4.32645 -3.20704,9.65463 -6.54159,15.98456 l -0.25583,0.47116 c 2.83932,0.0142 4.83445,-1.03852 5.98539,-3.15824 0.0859,-0.15819 2.09431,-4.5118 6.02522,-13.06085 z m -18.614684,32.31875 c -1.079131,-0.0767 -2.361024,-0.0602 -3.845683,0.0495 -0.698188,0.53685 -4.205653,5.49847 -10.522406,14.8849 1.847244,-0.21712 3.606913,-0.50744 5.27901,-0.87095 1.672102,-0.36345 3.020465,-1.48872 4.045095,-3.37582 0.596286,-1.09816 1.426208,-2.85965 2.489769,-5.28447 1.063551,-2.42474 1.914955,-4.22579 2.554215,-5.40315 z"
             id="path4213"
             style="fill:#ffffff" />
          <path
             d="m 177.61739,244.51256 c 0.79999,0.84324 1.86706,2.35831 3.20119,4.5452 1.57683,2.56973 2.32598,4.13821 2.24744,4.70543 -0.0786,0.56734 -4.60625,8.00577 -13.58287,22.31532 -8.97668,14.30963 -13.69163,21.67945 -14.14487,22.1095 -1.55771,1.47801 -2.87286,2.17108 -3.94543,2.07922 -1.18474,-0.59851 -2.74608,-1.3343 -4.68401,-2.20736 -5.75841,-2.3031 -13.96469,-7.70538 -24.61885,-16.20684 -7.80077,-6.40194 -15.63161,-12.83558 -23.492535,-19.30094 -0.806572,-0.5924 -3.044195,-2.10636 -6.712877,-4.54187 -2.859988,-1.84482 -4.967029,-3.48079 -6.32113,-4.90792 -1.169944,-1.23303 -2.345914,-3.41487 -3.527914,-6.54551 -1.18188,-3.13051 -1.534626,-5.35249 -1.058238,-6.66595 0.886379,-2.44317 5.34787,-9.78877 13.384485,-22.03682 8.036709,-12.24787 12.996189,-19.26484 14.878459,-21.05095 1.23115,-1.168 3.74299,-0.46902 7.53555,2.09695 2.73277,1.84165 5.02313,3.73623 6.87107,5.68374 0.55215,0.58202 1.24429,1.89617 2.0764,3.94246 0.83215,2.0465 1.14459,3.41437 0.93734,4.10362 -0.91147,3.32854 -3.30511,7.75675 -7.18092,13.28465 -4.27363,6.27417 -6.95159,10.7258 -8.03389,13.35489 2.41674,1.897 4.31042,3.2427 5.68105,4.0371 l 13.23123,-16.25525 c 2.41004,2.1516 6.25436,5.09925 11.53298,8.84296 1.75758,2.89101 2.75274,4.71877 2.9855,5.48329 0.27811,1.46258 -0.336,3.18585 -1.84233,5.16981 -1.50633,1.9841 -3.01232,3.93678 -4.51797,5.85805 -2.3554,2.97214 -3.2561,4.75012 -2.70209,5.33396 0,5e-5 2.44603,1.99329 7.33807,5.97971 7.99715,-13.13192 14.13632,-21.72897 18.41753,-25.79118 1.03713,-0.984 2.22331,-1.61677 3.55855,-1.89831 0.44331,-0.052 2.48165,1.18656 6.11505,3.71558 3.63333,2.52917 5.75801,4.11832 6.37403,4.76746 z m -5.65229,2.0344 c -3.28679,-2.42536 -5.54615,-4.28728 -6.7781,-5.58576 l -20.28928,28.49804 -1.43078,0.24614 c -0.92535,-0.84835 -4.03938,-3.25525 -9.3421,-7.22071 -5.30271,-3.96536 -7.98412,-5.97973 -8.04423,-6.04312 -0.80002,-0.84312 0.5696,-3.68476 4.10887,-8.52492 2.29345,-3.03733 4.58787,-6.07567 6.88328,-9.11502 -1.55323,-1.11763 -3.7859,-2.82059 -6.69799,-5.10889 l -0.67989,0.6451 c -1.23308,1.17008 -3.29777,3.93026 -6.19407,8.28055 -2.89627,4.35043 -4.47504,6.64956 -4.73633,6.89739 -0.64721,0.61417 -1.19013,0.8209 -1.62878,0.62018 -0.0619,-0.0652 -2.52381,-2.04346 -7.38558,-5.93463 -4.86171,-3.89104 -7.3846,-5.93357 -7.56868,-6.12762 -0.55398,-0.58381 -0.6947,-1.25142 -0.42219,-2.00282 0.13725,-0.3746 5.89302,-10.02583 17.26731,-28.95373 -2.66792,-2.0308 -5.17096,-4.27836 -7.50911,-6.74268 l -2.43156,2.30714 c -0.32457,0.3081 -3.90582,6.04839 -10.743754,17.22089 -6.837853,11.17269 -10.886616,17.84929 -12.1463,20.02983 1.788869,1.62769 4.509288,3.97553 8.161263,7.04351 5.459372,4.06512 13.579751,10.35003 24.361161,18.85476 0.12209,0.1287 3.72348,2.62608 10.80417,7.49214 1.42272,1.23784 3.55907,2.97012 6.40908,5.19684 0.55736,0.45663 2.58496,1.55302 6.08282,3.28917 2.55528,1.39688 4.35595,2.64653 5.40201,3.74896 l 0.68285,-0.64791 c 2.52952,-2.40007 6.57753,-8.46006 12.14405,-18.18 6.50151,-11.59247 10.40879,-18.32007 11.72186,-20.18283 z m -25.06211,44.11846 c -1.41602,-1.49235 -3.86701,-3.29658 -7.35296,-5.41268 -4.35934,-2.51725 -6.97336,-4.10285 -7.84206,-4.75679 -7.87937,-5.83466 -15.72676,-11.63763 -23.54221,-17.40893 -10.54865,-7.74014 -18.016359,-13.59683 -22.403153,-17.5701 1.188887,2.94169 2.060309,4.70444 2.614269,5.28827 1.1062,1.16586 3.241619,2.89715 6.406261,5.19387 4.284666,3.08471 6.549983,4.75669 6.795963,5.01592 9.10753,7.13305 14.77761,11.55104 17.01024,13.25396 6.07346,4.71231 11.90751,8.91265 17.50216,12.60103 2.79995,1.78157 6.87189,4.51325 12.21584,8.19504 z"
             id="path4215"
             style="fill:#ffffff" />
          <path
             d="m 274.51146,202.38554 c 0.62708,1.28488 -0.97187,3.30867 -4.79684,6.07138 -2.57474,1.65455 -5.14942,3.30905 -7.72404,4.96351 -7.32702,5.16746 -17.81052,12.22483 -31.45054,21.17212 -0.72647,0.55197 -2.21713,1.77752 -4.47197,3.67667 -1.815,1.58123 -3.32567,2.66627 -4.532,3.2551 -1.28484,0.62717 -3.8323,0.45276 -7.64238,-0.52322 -3.81012,-0.97596 -6.12914,-2.00725 -6.95708,-3.09388 -5.08962,-7.16756 -11.7907,-17.32856 -20.10325,-30.48305 -9.09593,-14.56027 -15.67503,-24.7793 -19.73734,-30.6571 -1.41988,-2.09401 -3.58043,-6.11282 -6.48164,-12.05642 0.11991,-0.15862 3.29976,-2.50778 9.53954,-7.04747 4.02952,-2.95962 7.32908,-5.06663 9.8987,-6.32104 2.41028,-1.1764 7.79677,0.0745 16.15948,3.7528 3.63213,4.79135 8.90117,12.0186 15.80714,21.68178 2.24022,3.97999 4.48045,7.9599 6.72071,11.93974 3.14456,5.62741 5.73079,9.09079 7.75869,10.39015 9.87929,-8.7025 17.22921,-14.23028 22.04978,-16.58337 1.52751,-0.74557 4.10539,-0.56172 7.73363,0.55155 3.30759,1.07253 5.57576,2.25465 6.80449,3.54636 0.71252,0.64506 2.69667,3.23265 5.95247,7.76276 3.25566,4.53024 5.07981,7.19745 5.47245,8.00163 z m -6.74057,-3.72329 c -1.5773,-2.61537 -4.10488,-5.95861 -7.58275,-10.02971 -0.79734,-0.20889 -1.95342,-0.54024 -3.46826,-0.99407 l 0.70555,1.44543 c 1.72581,3.53577 3.67951,6.21336 5.86111,8.03279 1.03439,0.2906 2.52917,0.80578 4.48435,1.54556 z m -44.65635,3.28943 c -2.41734,-2.30247 -4.92362,-5.70468 -7.51883,-10.20665 -2.08591,-3.65744 -4.14988,-7.37575 -6.1919,-11.15494 -3.59384,-4.7127 -8.64233,-12.09771 -15.1455,-22.15503 l -6.93184,-2.28643 0.41112,0.84224 c 1.29381,2.65065 3.36037,5.96996 6.19967,9.95794 4.38281,5.9187 6.67236,9.07906 6.86865,9.4811 4.13747,6.43617 10.30357,16.01123 18.4983,28.72519 0.8463,-0.7106 2.11641,-1.77841 3.81033,-3.20342 z m 37.81853,-3.53591 c -2.09306,-2.65812 -5.13372,-6.64506 -9.12198,-11.96083 l -3.37266,1.64628 c -3.37392,1.64694 -8.00401,4.95144 -13.89029,9.91352 -5.88634,4.96219 -10.43552,8.22719 -13.64755,9.79502 -0.40214,0.19634 -0.93553,0.53109 -1.60019,1.00426 -0.6647,0.47326 -1.1981,0.80801 -1.6002,1.00425 -0.88272,0.43092 -2.9409,-1.84804 -6.17454,-6.83688 -3.06561,-5.46546 -7.886,-13.60851 -14.4612,-24.42917 -3.50787,-5.15239 -8.79129,-12.91914 -15.85026,-23.30026 -7.48823,5.44664 -12.9193,8.99335 -16.29321,10.64013 l 0.763,1.56311 c 1.29503,2.6531 3.85673,6.57628 7.68512,11.76956 5.17056,7.12817 8.05095,11.09466 8.64118,11.8995 4.95709,8.52575 12.75498,21.13591 23.39371,37.83053 1.18672,1.21209 2.78735,3.16636 4.8019,5.86282 2.65505,-1.8941 6.56134,-4.7952 11.71888,-8.70331 8.22422,-6.99897 21.22697,-16.2318 39.00829,-27.69853 z"
             id="path4217"
             style="fill:#ffffff" />
          <path
             d="m 356.93453,187.39814 c -5.8714,3.7458 -12.74378,6.19098 -20.61716,7.33554 -16.36792,2.37947 -31.39955,-1.89532 -45.09493,-12.82437 -2.05426,-1.68923 -4.28358,-5.52154 -6.68796,-11.49693 -2.03384,-5.30404 -3.30158,-9.68143 -3.80323,-13.13219 -0.73321,-5.04369 -0.91605,-9.71528 -0.54851,-14.01478 0.59056,-6.50164 3.33407,-12.95377 8.23053,-19.35641 4.89645,-6.40246 10.39025,-10.40766 16.48141,-12.01562 8.43913,-2.22205 15.49109,-3.74488 21.15589,-4.56849 1.15019,-0.1671 2.12357,-0.3086 2.92014,-0.42451 6.9225,2.87857 10.49956,5.11433 10.7312,6.70727 0.4117,2.83248 0.73648,6.30889 0.97435,10.42924 0.27819,5.65038 0.0797,8.63765 -0.59549,8.96181 -0.67528,0.32433 -1.45798,0.68694 -2.34809,1.08785 -0.89022,0.40106 -4.11393,1.99944 -9.67116,4.79514 -3.72634,1.71632 -6.67969,3.77099 -8.86006,6.16402 -1.09767,1.15496 -2.07049,2.85554 -2.91845,5.10175 -0.84803,2.24634 -1.16271,4.12145 -0.94405,5.62533 0.83604,5.75123 2.81216,9.70995 5.92836,11.87618 l 0.79383,-0.1154 c 3.62887,-0.5275 7.31334,-1.28921 11.05342,-2.28513 0.60532,-0.17894 1.80484,-0.62351 3.59856,-1.33373 1.54119,-0.58795 2.75462,-0.94632 3.6403,-1.07512 0.97197,-0.14125 3.27643,1.2635 6.91339,4.21425 3.63684,2.95086 5.66472,4.93759 6.08366,5.96021 0.89179,2.39869 2.08647,7.19338 3.58405,14.38409 z m -21.19211,-71.18425 c -0.077,-0.52912 -0.39702,-1.02368 -0.96011,-1.4837 -0.5632,-0.45981 -1.10484,-0.92353 -1.62493,-1.39118 0.37402,3.19915 0.75295,7.97733 1.13678,14.33456 1.04931,0.39069 1.94104,0.93932 2.6752,1.64587 -0.21868,-1.50386 -0.42631,-3.70972 -0.62289,-6.61758 -0.19667,-2.90768 -0.39802,-5.07033 -0.60405,-6.48797 z m 15.81242,65.87027 c -0.49975,-2.18542 -1.04282,-4.36595 -1.62923,-6.54159 -0.43537,-1.7426 -2.0647,-3.62874 -4.88799,-5.65842 l 0.30911,2.12632 c 0.84856,5.83761 2.91793,9.1955 6.20811,10.07369 z m -30.76035,-43.77551 c -2.48028,-0.90214 -4.91383,-1.17975 -7.30068,-0.83284 -3.53983,0.51467 -6.19127,2.3228 -7.95433,5.4244 -1.76311,3.10175 -2.38107,6.46569 -1.8539,10.09183 0.46315,3.18615 1.62687,5.90922 3.49117,8.1692 1.10424,1.37525 3.33439,3.35464 6.69047,5.93817 -1.40854,-2.23526 -2.38932,-5.25512 -2.94235,-9.05959 -1.08024,-7.43056 2.20963,-14.00761 9.86962,-19.73117 z m 22.98099,42.46635 c -0.98219,-3.01963 -2.22616,-7.53696 -3.7319,-13.552 -4.45851,2.2749 -11.95154,4.17754 -22.47911,5.70793 -2.4787,0.36037 -5.60578,-0.94685 -9.38124,-3.92167 -3.77551,-2.97472 -6.20988,-5.73778 -7.30313,-8.28917 -0.95276,-2.21052 -1.59634,-4.46605 -1.93076,-6.76658 -1.09317,-7.51965 2.001,-13.88766 9.28253,-19.10404 5.22478,-3.83092 12.20984,-6.74327 20.9552,-8.73706 -0.28771,-3.21152 -0.57754,-8.00265 -0.86947,-14.37342 l -4.51184,0.6559 c -9.0264,1.31229 -15.90111,3.12505 -20.62415,5.43826 -6.84455,3.25321 -11.68073,8.20226 -14.50855,14.84715 -0.65522,1.08791 -1.50419,2.70156 -2.54693,4.84096 -1.67008,4.67083 -1.93911,10.89972 -0.80709,18.68669 0.42432,2.91884 1.68519,6.93605 3.78262,12.05163 2.26385,5.63464 4.2331,9.23317 5.90775,10.79561 4.04222,3.56742 9.50952,6.07016 16.40191,7.50824 6.14915,1.27597 12.18843,1.48296 18.11785,0.62096 1.06108,-0.15423 3.41025,-1.08301 7.0475,-2.78633 3.29599,-1.56544 5.6956,-2.77313 7.19881,-3.62306 z"
             id="path4219"
             style="fill:#ffffff" />
          <path
             d="m 441.16059,164.85081 c -0.89131,6.46538 -3.43221,13.10957 -7.6227,19.93259 -5.22934,8.48392 -11.37337,13.77347 -18.43211,15.86868 -2.19405,0.87088 -4.43401,1.73543 -6.71987,2.59363 -1.89265,0.64251 -4.03499,0.79889 -6.42702,0.46915 -8.76825,-1.20867 -15.76424,-4.47423 -20.988,-9.7967 -2.857,-2.83134 -5.22933,-8.52916 -7.117,-17.0935 -1.8746,-8.01989 -2.48848,-14.37596 -1.84166,-19.06824 l 1.72191,-12.49147 c -0.0488,0.35414 1.07382,-2.87472 3.36792,-9.68658 0.70802,-2.51888 2.2441,-6.45918 4.60822,-11.82093 2.11697,-3.58885 6.06816,-7.37664 11.85359,-11.36338 4.87772,-3.29641 8.13701,-5.01198 9.77787,-5.1467 6.44483,-0.91829 10.7741,-1.22491 12.98783,-0.91986 6.90856,0.95244 12.57174,5.70474 16.98956,14.25691 3.40918,6.69743 5.81547,15.106 7.21889,25.22574 1.04986,8.08808 1.25738,14.43496 0.62257,19.04066 z m -4.43053,1.69045 c 1.2209,-8.85736 0.38692,-19.17135 -2.50195,-30.942 -3.87225,-15.78679 -10.67896,-24.35163 -20.42017,-25.69453 -9.30073,-1.28198 -16.834,3.27624 -22.59983,13.67466 -3.74461,6.8846 -6.26391,15.02045 -7.55788,24.40756 -2.07571,15.05792 1.88109,27.92316 11.87041,38.59577 1.25756,1.34669 3.29089,2.80029 6.09999,4.36082 2.80903,1.56055 5.09876,2.46284 6.8692,2.70687 7.35185,1.01345 13.81913,-1.70589 19.40186,-8.15802 4.91563,-5.54975 7.86175,-11.86678 8.83837,-18.95113 z m -43.61975,23.77036 c -5.52521,-5.09406 -9.47768,-11.77677 -11.85743,-20.04814 -2.21018,-7.52355 -2.79029,-15.09373 -1.74032,-22.71056 0.70827,-5.13815 1.39818,-8.83429 2.06972,-11.08842 0.53351,-1.91221 2.03288,-5.58628 4.49812,-11.02222 -0.76928,0.34574 -1.82685,1.46416 -3.17271,3.35527 -1.23665,3.07688 -2.46598,6.11063 -3.68797,9.10125 -1.28584,3.43365 -2.19317,6.73901 -2.72201,9.91608 -0.6995,4.41512 -0.83364,9.31436 -0.4024,14.69775 0.45076,3.94293 0.90018,7.88563 1.34826,11.82812 0.17075,1.37867 0.60969,3.10963 1.31682,5.1929 0.664,1.71658 1.32341,3.47656 1.97823,5.27995 1.03776,2.9414 1.96937,4.69484 2.79483,5.26031 0.31755,0.3137 1.40613,0.59872 3.26575,0.85505 0.35406,0.0488 1.38121,-0.0348 3.08146,-0.25071 1.7002,-0.21594 2.77675,-0.33815 3.22965,-0.36663 z m 33.12322,-33.07106 c -0.59843,4.34091 -1.99035,7.89483 -4.17576,10.66178 -2.73871,3.50327 -6.18927,4.968 -10.35169,4.39418 -6.2005,-0.85468 -9.90647,-6.0588 -11.11791,-15.61237 -0.60695,-5.4076 -0.44635,-11.47788 0.4818,-18.21087 1.61141,-11.68998 5.07408,-17.16875 10.38803,-16.43633 2.8353,0.39093 4.71087,1.19069 5.62674,2.39927 2.9377,3.56418 5.35258,8.79345 7.24466,15.68784 1.89196,6.89451 2.52667,12.6 1.90413,17.1165 z m -8.74763,-1.33804 c 0.36658,-2.6596 -0.0565,-6.46372 -1.26923,-11.41236 -1.5497,-6.44093 -3.96383,-9.88741 -7.24241,-10.33943 -1.41636,-0.19516 -2.60871,0.27258 -3.57704,1.40323 l -1.44639,10.49267 c -0.23216,1.68396 0.0708,5.38063 0.9088,11.09 1.04522,6.82321 2.49765,10.36297 4.3573,10.61927 1.41627,0.19527 3.02918,-1.02562 4.83872,-3.66269 1.66911,-2.29829 2.63186,-4.37725 2.88825,-6.23689 0.0245,-0.17834 0.11189,-0.48235 0.26206,-0.91203 0.15006,-0.42958 0.24338,-0.77684 0.27994,-1.04177 z m 4.79133,6.48161 c -0.86202,-0.30056 -2.30637,0.35692 -4.33305,1.97243 -2.53118,1.99776 -3.93668,3.02277 -4.21651,3.07505 -0.0865,-0.0119 0.23438,0.12255 0.96279,0.40332 0.7283,0.28084 1.75604,0.51272 3.08322,0.69562 0.7815,-0.43482 1.72538,-1.38782 2.83163,-2.85901 1.10613,-1.47111 1.66344,-2.56691 1.67192,-3.28741 z"
             id="path4221"
             style="fill:#ffffff" />
          <path
             d="m 515.72319,246.76787 c -0.71718,-0.36558 -3.60898,-3.84558 -8.6754,-10.44003 -4.51297,-5.91418 -7.48048,-9.93656 -8.90255,-12.06715 5.40863,-6.67545 12.6414,-13.87729 21.69832,-21.60554 l 0.30296,-0.59435 c -0.51774,0.0363 -2.4027,0.78123 -5.65487,2.2349 -2.80878,1.3766 -4.45135,1.94346 -4.92773,1.70059 -0.87761,-0.44732 -2.87488,-2.09245 -5.99181,-4.93542 -3.11706,-2.84295 -4.90154,-4.70578 -5.35344,-5.58849 -0.45202,-0.88267 -0.43262,-2.20191 0.0582,-3.9577 0.49247,-1.35673 0.98317,-2.71288 1.47209,-4.06846 -3.43394,4.57368 -8.7243,11.41049 -15.87109,20.51047 -1.21032,1.389 -3.19983,2.63345 -5.96852,3.73336 -3.08628,1.13405 -5.38662,1.31508 -6.90102,0.54312 -0.47648,-0.24287 -2.40181,-2.0772 -5.776,-5.50299 -3.68993,-3.78577 -5.98179,-6.03203 -6.87561,-6.73879 -0.89384,-0.70673 -1.81454,-1.80386 -2.76209,-3.29139 -1.14614,-1.68671 -1.75543,-3.05079 -1.82787,-4.09224 -0.0331,-0.9203 0.92098,-2.79206 2.86236,-5.6153 4.9381,-7.51858 9.875,-15.03782 14.81072,-22.55772 5.70294,-8.43024 10.93722,-15.74583 15.70286,-21.94677 0.85214,-1.47347 2.44609,-3.32074 4.78184,-5.54182 8.3904,-4.25199 16.88703,-4.18542 25.48992,0.19974 14.25693,7.26748 21.39657,12.05989 21.41894,14.37724 0.0315,1.1217 -0.15924,2.58024 -0.5721,4.37561 -0.66115,2.47446 -1.05256,3.93022 -1.17422,4.36729 2.53537,-2.01807 4.6937,-3.2002 6.47499,-3.5464 1.78109,-0.34608 4.02567,0.17104 6.73376,1.55135 0.79721,0.40649 3.5146,3.24634 8.15218,8.51958 5.67101,6.20141 8.7039,9.50375 9.0987,9.90701 1.35041,1.29178 2.70035,2.58168 4.04983,3.86972 1.78565,1.81375 2.67327,3.31971 2.66288,4.51788 -0.0445,0.6818 -0.4929,1.8589 -1.34528,3.53131 -2.55766,5.01732 -9.65182,14.79799 -21.28248,29.34205 -11.98844,14.86097 -19.91355,23.61629 -23.77536,26.26598 -0.88172,0.552 -2.94504,1.20528 -6.18995,1.95985 -3.24506,0.75451 -5.22611,0.94901 -5.94314,0.58351 z m 31.25073,-85.22436 -2.38833,-1.21743 c -1.20385,0.39094 -2.91092,1.32765 -5.12121,2.81011 -2.21048,1.48257 -3.55916,2.70149 -4.04604,3.65677 -0.2442,0.47893 -0.42991,1.13763 -0.55713,1.97613 4.78001,-2.88288 8.81758,-5.29141 12.11271,-7.22558 z m 22.95955,24.35004 c -4.4818,-4.59359 -11.04276,-11.7018 -19.6829,-21.32464 -11.37523,7.548 -17.899,10.89572 -19.57135,10.04317 -1.03563,-0.52782 -0.71031,-3.92367 0.97598,-10.18754 1.9751,-7.02297 2.86729,-11.13436 2.67658,-12.33418 -7.35639,-5.2565 -12.18919,-8.47336 -14.49843,-9.65059 -1.91317,-0.97511 -5.63997,-2.52263 -11.18042,-4.64258 -3.06529,3.45397 -6.3376,7.80679 -9.81696,13.05847 -2.95593,4.61525 -5.9118,9.23044 -8.86762,13.84558 -1.2531,1.86949 -4.84791,6.6597 -10.78442,14.37064 -4.48463,5.8419 -7.74255,10.85437 -9.77375,15.03743 1.34808,1.29052 4.95714,5.03662 10.8272,11.2383 5.69484,-7.23085 11.38912,-14.46355 17.08286,-21.69811 9.44746,-11.84106 14.79355,-17.99715 16.03826,-18.46831 0.43981,-0.0758 0.89918,0.008 1.37814,0.25231 1.11326,0.56756 0.7585,5.00343 -1.06427,13.30763 -1.16083,5.22707 -2.28089,10.4764 -3.36018,15.74798 1.22974,1.12609 3.21657,2.74064 5.9605,4.84366 4.90113,-2.92224 9.76162,-5.86372 14.58146,-8.82445 8.0738,-4.8146 12.4693,-7.03914 13.18651,-6.67363 1.4341,0.73111 1.50191,2.37042 0.20342,4.91794 -3.00495,5.89486 -7.61349,12.37639 -13.82561,19.4446 -5.40501,5.87499 -10.8087,11.75059 -16.21111,17.62683 4.88025,4.79682 9.06592,9.08796 12.55701,12.87343 1.88986,-1.54482 3.44075,-3.11238 4.65269,-4.70269 15.49889,-18.7922 27.73175,-34.03077 36.69864,-45.71576 z M 527.9336,203.6185 c -1.07841,-0.0474 -2.69927,0.0803 -4.86259,0.38323 -0.64041,0.27691 -3.62199,3.17319 -8.94472,8.68884 -4.79447,4.88157 -7.99909,8.2154 -9.61385,10.00151 2.0828,-0.14491 4.28215,-0.12783 6.59807,0.0512 5.88285,-5.83346 11.49055,-12.20839 16.82309,-19.12481 z m -21.86966,-10.54613 c 0.99217,-4.10937 2.45948,-10.23518 4.40194,-18.37745 -0.12118,0.0394 -1.23047,1.23025 -3.32789,3.57266 -1.25123,1.46925 -2.18164,2.80185 -2.79122,3.99781 -0.64936,1.2738 -1.18222,3.10918 -1.59856,5.50613 -0.66577,3.07231 -1.10117,5.00789 -1.30621,5.80675 1.08102,-0.15021 2.62167,-0.31885 4.62194,-0.5059 z m -3.35023,-54.84356 c -3.9651,0.68923 -6.85153,1.62654 -8.65932,2.81192 -0.48481,0.35628 -1.95965,2.26427 -4.4245,5.72398 -4.76565,6.20093 -13.07181,17.67138 -24.91851,34.41138 -1.41697,2.38924 -3.46166,5.71256 -6.13408,9.96995 1.31896,0.17012 3.33571,0.4463 6.05024,0.82854 2.14023,-2.82286 5.2919,-7.03812 9.455,-12.64578 6.18958,-9.1867 15.7333,-22.88668 28.63117,-41.09999 z"
             id="path4223"
             style="fill:#ffffff" />
          <path
             d="m 607.25385,301.17251 c -0.83838,0.8051 -2.34694,1.88133 -4.5257,3.22871 -2.56012,1.59239 -4.12402,2.35104 -4.69171,2.27594 -0.56781,-0.0752 -8.03357,-4.5576 -22.39731,-13.44725 -14.36381,-8.8897 -21.76211,-13.55986 -22.1949,-14.01049 -1.48743,-1.54872 -2.18847,-2.85963 -2.10311,-3.93274 0.59131,-1.18835 1.31761,-2.75412 2.1789,-4.69731 2.26813,-5.77228 7.62052,-14.01118 16.0572,-24.71672 6.3545,-7.83946 12.74052,-15.70918 19.15807,-23.60918 0.5875,-0.81016 2.08785,-3.05692 4.50106,-6.74031 1.82744,-2.87113 3.4506,-4.98805 4.86949,-6.35079 1.22591,-1.1774 3.40057,-2.36658 6.52399,-3.56755 3.12328,-1.20085 5.34308,-1.56707 6.6594,-1.09866 2.4485,0.87154 9.82103,5.28839 22.11762,13.25056 12.29639,7.96226 19.34332,12.87908 21.14081,14.75048 1.17545,1.22404 0.49172,3.74008 -2.0512,7.54813 -1.82504,2.7439 -3.70569,5.0457 -5.64195,6.90543 -0.57866,0.55567 -1.88859,1.25576 -3.92979,2.10027 -2.04142,0.84455 -3.40737,1.16529 -4.09786,0.96222 -3.33401,-0.89127 -7.77666,-3.258 -13.32796,-7.1002 -6.29999,-4.23549 -10.76778,-6.8864 -13.40338,-7.95273 -1.88231,2.4282 -3.2165,4.33001 -4.00257,5.70544 l 16.33522,13.13238 c -2.13694,2.42304 -5.06122,6.28517 -8.77284,11.58641 -2.88029,1.77508 -4.70199,2.78131 -5.46508,3.0187 -1.46086,0.28698 -3.18783,-0.31666 -5.18089,-1.81092 -1.9932,-1.49427 -3.95498,-2.98839 -5.88534,-4.48236 -2.98638,-2.33733 -4.7698,-3.22722 -5.35026,-2.66968 -5e-5,0 -1.97841,2.45807 -5.93508,7.37421 13.18018,7.91734 21.81432,14.00424 25.90242,18.26074 0.99028,1.03113 1.63023,2.21345 1.91986,3.54696 0.0547,0.44298 -1.17147,2.48881 -3.67841,6.13748 -2.50708,3.6486 -4.08332,5.78288 -4.7287,6.40283 z m -2.06866,-5.63984 c 2.40538,-3.30144 4.25356,-5.57206 5.54455,-6.81187 l -28.6206,-20.11602 -0.25482,-1.42927 c 0.84273,-0.93047 3.23069,-4.05904 7.16391,-9.38573 3.93311,-5.32666 5.93118,-8.02024 5.99421,-8.08074 0.83825,-0.80511 3.68814,0.54725 8.54969,4.05709 3.05118,2.27497 6.10338,4.55092 9.1566,6.82785 1.1082,-1.55998 2.79758,-3.80293 5.06816,-6.72886 l -0.6492,-0.67596 c -1.17754,-1.22596 -3.9502,-3.27387 -8.31798,-6.14373 -4.36791,-2.86982 -6.67658,-4.43461 -6.92599,-4.69439 -0.61809,-0.64347 -0.82811,-1.18513 -0.63005,-1.62499 0.0649,-0.0623 2.02811,-2.53616 5.88972,-7.42145 3.86147,-4.88522 5.88866,-7.42045 6.08159,-7.60571 0.58044,-0.55751 1.24718,-0.70228 2.00022,-0.43433 0.37543,0.13498 10.0614,5.83209 29.05795,17.09135 2.01458,-2.6802 4.24691,-5.19682 6.697,-7.54988 l -2.32184,-2.41751 c -0.31007,-0.3227 -6.07198,-3.86906 -17.28576,-10.6391 -11.21396,-6.76995 -17.915,-10.77813 -20.10314,-12.02456 -1.61681,1.79871 -3.9481,4.53332 -6.99387,8.20384 -4.03193,5.48393 -10.26746,13.64228 -18.70663,24.47509 -0.12796,0.12287 -2.60345,3.73934 -7.42647,10.84942 -1.22918,1.4302 -2.94847,3.57702 -5.15786,6.44048 -0.45324,0.56013 -1.53731,2.59434 -3.25221,6.10267 -1.38134,2.56371 -2.62005,4.37192 -3.71612,5.42465 l 0.65204,0.67891 c 2.41537,2.51491 8.49981,6.52609 18.25334,12.03354 11.63169,6.43107 18.38287,10.29746 20.25356,11.59921 z m -44.26968,-24.79401 c 1.48374,-1.42506 3.27306,-3.88694 5.36798,-7.38567 2.49076,-4.37453 4.06047,-6.99812 4.70913,-7.87077 5.78675,-7.91461 11.54201,-15.79707 17.2658,-23.64738 7.676,-10.59541 13.48728,-18.09851 17.43387,-22.50933 -2.93443,1.20671 -4.69186,2.08881 -5.27232,2.6463 -1.15913,1.11326 -2.87743,3.25914 -5.1549,6.43765 -3.05867,4.3033 -4.71687,6.57872 -4.97461,6.82627 -7.07767,9.15063 -11.46118,14.84741 -13.15052,17.09033 -4.67539,6.10193 -8.84026,11.96136 -12.49463,17.57828 -1.76455,2.81071 -4.47148,6.89914 -8.12079,12.26532 z"
             id="path4225"
             style="fill:#ffffff" />
        </g>
      </g>
    </g>
  </g>
</svg>
